<svg width="16" height="16" viewBox="0 0 16 16" fill="none" xmlns="http://www.w3.org/2000/svg">
<rect width="16" height="16" rx="4" fill="#0095B6"/>
<path d="M11.0001 4.2H6.79988C6.53475 4.19968 6.28057 4.09422 6.09309 3.90676C5.90562 3.71929 5.80015 3.46512 5.79984 3.2C5.79984 3.14696 5.77876 3.09609 5.74125 3.05858C5.70375 3.02107 5.65287 3 5.59983 3C5.55207 2.99997 5.50434 3.00238 5.45682 3.0072C4.90588 3.03672 4.37868 3.24102 3.95172 3.59044C3.52476 3.93986 3.22024 4.41623 3.08236 4.95042C2.94448 5.48462 2.98041 6.04885 3.18493 6.56125C3.38945 7.07365 3.75193 7.50755 4.21976 7.8H3.77694C3.68 7.8 3.5845 7.8235 3.49861 7.86847C3.41273 7.91344 3.33902 7.97855 3.2838 8.05822C3.22858 8.1379 3.19348 8.22976 3.18152 8.32596C3.16956 8.42216 3.18109 8.51983 3.21511 8.6106L4.61778 12.3506C4.68973 12.5409 4.81779 12.705 4.98501 12.8209C5.15223 12.9369 5.35073 12.9993 5.55422 13H10.4457C10.6491 12.9994 10.8476 12.937 11.0148 12.8211C11.182 12.7052 11.3101 12.5413 11.3821 12.351L12.7848 8.611C12.8189 8.52021 12.8305 8.4225 12.8185 8.32624C12.8066 8.22999 12.7715 8.13806 12.7163 8.05834C12.6611 7.97861 12.5873 7.91346 12.5014 7.86846C12.4155 7.82347 12.3199 7.79998 12.2229 7.8H12.1951C12.5321 7.54918 12.7814 7.19851 12.9077 6.79785C13.0339 6.3972 13.0306 5.96695 12.8983 5.56827C12.7659 5.1696 12.5113 4.82278 12.1705 4.57714C11.8297 4.3315 11.4202 4.19953 11.0001 4.2ZM4.9924 12.2106L3.58973 8.4702C3.57839 8.43995 3.57455 8.4074 3.57853 8.37534C3.58252 8.34328 3.59421 8.31266 3.61261 8.2861C3.63101 8.25954 3.65557 8.23784 3.68419 8.22285C3.71281 8.20785 3.74463 8.20001 3.77694 8.2H5.43702L6.35386 12.6H5.55382C5.43182 12.5995 5.31283 12.5621 5.21259 12.4926C5.11234 12.423 5.03556 12.3247 4.9924 12.2106ZM10.154 8.2L9.2374 12.6H8.19995V8.2H10.154ZM7.79993 12.6H6.76248L5.84584 8.2H7.79993V12.6ZM12.2229 8.2C12.2552 8.20001 12.2871 8.20785 12.3157 8.22285C12.3443 8.23784 12.3689 8.25954 12.3873 8.2861C12.4057 8.31266 12.4174 8.34328 12.4213 8.37534C12.4253 8.4074 12.4215 8.43995 12.4101 8.4702L11.0075 12.2102C10.9644 12.3244 10.8875 12.4229 10.7872 12.4925C10.6869 12.5621 10.5678 12.5996 10.4457 12.6H9.64562L10.5623 8.2H12.2229ZM11.0001 7.8H9.38981C9.33909 7.14757 9.04435 6.5382 8.56434 6.09339C8.08434 5.64858 7.45432 5.401 6.79988 5.4C6.74684 5.4 6.69596 5.42107 6.65845 5.45858C6.62095 5.49609 6.59987 5.54696 6.59987 5.6C6.59987 5.65304 6.62095 5.70391 6.65845 5.74142C6.69596 5.77893 6.74684 5.8 6.79988 5.8C7.34844 5.80073 7.87698 6.00616 8.28203 6.37608C8.68708 6.746 8.93947 7.25378 8.98979 7.8H5.59983C5.1323 7.80047 4.6768 7.65186 4.29951 7.37577C3.92222 7.09968 3.64279 6.71049 3.50182 6.26475C3.36085 5.819 3.36569 5.33992 3.51562 4.89711C3.66556 4.4543 3.95278 4.07082 4.33557 3.8024C4.234 4.01556 4.18813 4.25098 4.20224 4.48668C4.21635 4.72237 4.28999 4.95065 4.41626 5.15017C4.54253 5.34968 4.71733 5.51394 4.92431 5.62758C5.13129 5.74122 5.3637 5.80054 5.59983 5.8C5.65287 5.8 5.70375 5.77893 5.74125 5.74142C5.77876 5.70391 5.79984 5.65304 5.79984 5.6C5.79984 5.54696 5.77876 5.49609 5.74125 5.45858C5.70375 5.42107 5.65287 5.4 5.59983 5.4C5.35045 5.40023 5.11001 5.3072 4.92574 5.13918C4.74147 4.97115 4.62671 4.7403 4.604 4.49197C4.58129 4.24364 4.65228 3.9958 4.80302 3.79715C4.95375 3.5985 5.17334 3.4634 5.41862 3.4184C5.47059 3.74749 5.63823 4.04725 5.89141 4.26383C6.14458 4.48041 6.4667 4.59961 6.79988 4.6H9.2C9.62422 4.60048 10.0309 4.7692 10.3309 5.06916C10.6309 5.36911 10.7996 5.7758 10.8001 6.2C10.8001 6.25304 10.8211 6.30391 10.8587 6.34142C10.8962 6.37893 10.947 6.4 11.0001 6.4C11.0531 6.4 11.104 6.37893 11.1415 6.34142C11.179 6.30391 11.2001 6.25304 11.2001 6.2C11.1998 5.88904 11.1268 5.58244 10.9871 5.30466C10.8473 5.02687 10.6446 4.78557 10.3951 4.6H11.0001C11.4244 4.6 11.8314 4.76857 12.1315 5.06863C12.4316 5.36869 12.6002 5.77565 12.6002 6.2C12.6002 6.62435 12.4316 7.03131 12.1315 7.33137C11.8314 7.63143 11.4244 7.8 11.0001 7.8Z" fill="white"/>
</svg>
